<svg xmlns="http://www.w3.org/2000/svg" viewBox="0 0 220 540" fill="none">
  <defs>
    <linearGradient id="brass" x1="0" y1="0" x2="1" y2="1">
      <stop offset="0" stop-color="#3a2814"></stop>
      <stop offset="0.35" stop-color="#9c6f35"></stop>
      <stop offset="0.55" stop-color="#d6a85a"></stop>
      <stop offset="0.75" stop-color="#7d5224"></stop>
      <stop offset="1" stop-color="#2a1a08"></stop>
    </linearGradient>
    <linearGradient id="brassDark" x1="0" y1="0" x2="1" y2="0">
      <stop offset="0" stop-color="#1f1409"></stop>
      <stop offset="0.5" stop-color="#5e3f1d"></stop>
      <stop offset="1" stop-color="#1f1409"></stop>
    </linearGradient>
    <radialGradient id="dial" cx="0.5" cy="0.45" r="0.6">
      <stop offset="0" stop-color="#e8d6a8"></stop>
      <stop offset="0.7" stop-color="#b18d4f"></stop>
      <stop offset="1" stop-color="#3a2611"></stop>
    </radialGradient>
    <radialGradient id="weight" cx="0.5" cy="0.3" r="0.7">
      <stop offset="0" stop-color="#d4a460"></stop>
      <stop offset="0.6" stop-color="#7a4f1e"></stop>
      <stop offset="1" stop-color="#1f120a"></stop>
    </radialGradient>
    <filter id="soft" x="-10%" y="-10%" width="120%" height="120%">
      <feGaussianBlur stdDeviation="0.3"></feGaussianBlur>
    </filter>
  </defs>

  
  <g filter="url(#soft)">
    <path d="M40 50 Q40 22 70 18 L110 8 L150 18 Q180 22 180 50 L180 70 L40 70 Z" fill="url(#brass)"></path>
    <path d="M95 14 Q110 0 125 14 L125 22 L95 22 Z" fill="#7a5226"></path>
    <circle cx="110" cy="10" r="4" fill="#d4a85a"></circle>
    
    <ellipse cx="44" cy="46" rx="6" ry="14" fill="#6b4520"></ellipse>
    <ellipse cx="176" cy="46" rx="6" ry="14" fill="#6b4520"></ellipse>
    
    <path d="M55 60 Q70 40 90 50 Q110 35 130 50 Q150 40 165 60" stroke="#2a1808" stroke-width="1.2" fill="none"></path>
    <path d="M60 64 Q75 52 92 60 M128 60 Q145 52 160 64" stroke="#d4a85a" stroke-width="0.6" fill="none" opacity="0.5"></path>
  </g>

  
  <rect x="30" y="68" width="160" height="180" rx="4" fill="url(#brass)"></rect>
  <rect x="34" y="72" width="152" height="172" rx="2" fill="#1c1208"></rect>
  
  <rect x="40" y="80" width="10" height="156" fill="url(#brassDark)"></rect>
  <rect x="170" y="80" width="10" height="156" fill="url(#brassDark)"></rect>
  <circle cx="45" cy="80" r="5" fill="#7a5226"></circle>
  <circle cx="175" cy="80" r="5" fill="#7a5226"></circle>
  <circle cx="45" cy="236" r="5" fill="#7a5226"></circle>
  <circle cx="175" cy="236" r="5" fill="#7a5226"></circle>

  
  <circle cx="110" cy="158" r="58" fill="url(#dial)"></circle>
  <circle cx="110" cy="158" r="58" fill="none" stroke="#3a2410" stroke-width="2"></circle>
  <circle cx="110" cy="158" r="52" fill="none" stroke="#5a3a18" stroke-width="0.5"></circle>

  
  <g font-family="Georgia, serif" font-size="11" fill="#2a1808" text-anchor="middle" font-weight="600">
    <text x="110" y="115">XII</text>
    <text x="142" y="125">I</text>
    <text x="158" y="146">II</text>
    <text x="162" y="164">III</text>
    <text x="158" y="180">IV</text>
    <text x="142" y="196">V</text>
    <text x="110" y="206">VI</text>
    <text x="78" y="196">VII</text>
    <text x="62" y="180">VIII</text>
    <text x="58" y="164">IX</text>
    <text x="62" y="146">X</text>
    <text x="78" y="125">XI</text>
  </g>
  
  <g stroke="#2a1808" stroke-width="1">
    <line x1="110" y1="106" x2="110" y2="112"></line>
    <line x1="110" y1="204" x2="110" y2="210"></line>
    <line x1="58" y1="158" x2="64" y2="158"></line>
    <line x1="156" y1="158" x2="162" y2="158"></line>
  </g>
  
  <line x1="110" y1="158" x2="110" y2="120" stroke="#1a0e04" stroke-width="2.5" stroke-linecap="round"></line>
  <line x1="110" y1="158" x2="138" y2="170" stroke="#1a0e04" stroke-width="2" stroke-linecap="round"></line>
  <circle cx="110" cy="158" r="3" fill="#1a0e04"></circle>
  
  <path d="M82 96 Q110 78 138 96 Q138 110 110 110 Q82 110 82 96" fill="#1c1208" stroke="#7a5226" stroke-width="0.6"></path>
  <circle cx="100" cy="100" r="4" fill="#d4a85a"></circle>

  
  <rect x="50" y="248" width="120" height="160" fill="url(#brass)"></rect>
  <rect x="56" y="254" width="108" height="148" fill="#0e0904"></rect>
  
  <path d="M60 258 L160 258 L60 260 Z" fill="#d4a85a" opacity="0.3"></path>
  
  <line x1="80" y1="254" x2="80" y2="370" stroke="#5a3a18" stroke-width="0.8" stroke-dasharray="2 2"></line>
  <line x1="140" y1="254" x2="140" y2="370" stroke="#5a3a18" stroke-width="0.8" stroke-dasharray="2 2"></line>
  
  <line x1="110" y1="254" x2="110" y2="380" stroke="#7a5226" stroke-width="1.2"></line>
  <ellipse cx="110" cy="392" rx="14" ry="10" fill="url(#weight)"></ellipse>
  <circle cx="110" cy="392" r="6" fill="#3a2410" opacity="0.4"></circle>

  
  <g>
    <ellipse cx="80" cy="395" rx="9" ry="22" fill="url(#weight)"></ellipse>
    <ellipse cx="80" cy="378" rx="9" ry="3" fill="#5a3a18"></ellipse>
    <ellipse cx="80" cy="416" rx="9" ry="3" fill="#3a2410"></ellipse>
    <ellipse cx="140" cy="410" rx="9" ry="22" fill="url(#weight)"></ellipse>
    <ellipse cx="140" cy="393" rx="9" ry="3" fill="#5a3a18"></ellipse>
    <ellipse cx="140" cy="431" rx="9" ry="3" fill="#3a2410"></ellipse>
  </g>

  
  <rect x="40" y="408" width="140" height="40" fill="url(#brass)"></rect>
  <rect x="44" y="412" width="132" height="32" fill="#1c1208"></rect>
  <rect x="36" y="446" width="148" height="14" fill="#3a2410"></rect>
  <rect x="30" y="458" width="160" height="10" fill="#5a3a18"></rect>
  
  <ellipse cx="50" cy="472" rx="10" ry="6" fill="#2a1808"></ellipse>
  <ellipse cx="170" cy="472" rx="10" ry="6" fill="#2a1808"></ellipse>

  
  <path d="M34 72 L34 244 M186 72 L186 244" stroke="#e8c478" stroke-width="0.4" opacity="0.4"></path>
</svg>