<svg xmlns="http://www.w3.org/2000/svg" viewBox="0 0 140 180" fill="none">
  <defs>
    <linearGradient id="maskFrame" x1="0" y1="0" x2="1" y2="1">
      <stop offset="0" stop-color="#1a0e04"></stop>
      <stop offset="0.5" stop-color="#3a2410"></stop>
      <stop offset="1" stop-color="#0a0604"></stop>
    </linearGradient>
    <radialGradient id="redG" cx="0.5" cy="0.4" r="0.6">
      <stop offset="0" stop-color="#a8281c"></stop>
      <stop offset="0.6" stop-color="#6a1a14"></stop>
      <stop offset="1" stop-color="#2a0a08"></stop>
    </radialGradient>
    <radialGradient id="faceG" cx="0.5" cy="0.45" r="0.6">
      <stop offset="0" stop-color="#e8c4a8"></stop>
      <stop offset="1" stop-color="#a87858"></stop>
    </radialGradient>
  </defs>
  
  <ellipse cx="70" cy="90" rx="68" ry="88" fill="url(#maskFrame)"></ellipse>
  <ellipse cx="70" cy="90" rx="60" ry="80" fill="url(#redG)"></ellipse>
  
  <ellipse cx="70" cy="90" rx="60" ry="80" fill="none" stroke="#9c6f35" stroke-width="2"></ellipse>

  
  <g transform="translate(70 90)">
    
    <ellipse cx="0" cy="0" rx="32" ry="40" fill="url(#faceG)"></ellipse>
    
    <ellipse cx="0" cy="10" rx="28" ry="24" fill="#7a3a2a" opacity="0.3"></ellipse>
    
    <path d="M-18 -10 Q-12 -16 -6 -10" stroke="#2a1808" stroke-width="2" fill="none" stroke-linecap="round"></path>
    <path d="M6 -10 Q12 -16 18 -10" stroke="#2a1808" stroke-width="2" fill="none" stroke-linecap="round"></path>
    
    <path d="M-14 14 Q0 28 14 14 Q10 22 0 22 Q-10 22 -14 14 Z" fill="#3a0a06"></path>
    
    <path d="M-10 16 L10 16" stroke="#e8c4a8" stroke-width="1" opacity="0.6"></path>
    
    <ellipse cx="-18" cy="6" rx="6" ry="4" fill="#c8584a" opacity="0.5"></ellipse>
    <ellipse cx="18" cy="6" rx="6" ry="4" fill="#c8584a" opacity="0.5"></ellipse>
    
    <path d="M0 -4 L-3 8 L3 8 Z" fill="#a87858" opacity="0.5"></path>
    
    <ellipse cx="-6" cy="-22" rx="10" ry="6" fill="#fff" opacity="0.15"></ellipse>
  </g>
  
  <circle cx="70" cy="6" r="3" fill="#3a2410"></circle>
</svg>