<svg xmlns="http://www.w3.org/2000/svg" viewBox="0 0 460 560" fill="none">
  <defs>
    <linearGradient id="frameG" x1="0" y1="0" x2="1" y2="1">
      <stop offset="0" stop-color="#2a1808"></stop>
      <stop offset="0.3" stop-color="#7a5226"></stop>
      <stop offset="0.5" stop-color="#d6a85a"></stop>
      <stop offset="0.7" stop-color="#9c6f35"></stop>
      <stop offset="1" stop-color="#1a0e04"></stop>
    </linearGradient>
    <radialGradient id="glassG" cx="0.4" cy="0.35" r="0.7">
      <stop offset="0" stop-color="#3a3a3a"></stop>
      <stop offset="0.5" stop-color="#1a1a1a"></stop>
      <stop offset="1" stop-color="#0a0a0a"></stop>
    </radialGradient>
    <pattern id="ornate" x="0" y="0" width="40" height="40" patternUnits="userSpaceOnUse">
      <circle cx="20" cy="20" r="3" fill="#5a3a18"></circle>
      <path d="M5 20 Q20 5 35 20 Q20 35 5 20" stroke="#d6a85a" stroke-width="0.6" fill="none" opacity="0.4"></path>
    </pattern>
  </defs>

  
  <ellipse cx="230" cy="280" rx="220" ry="270" fill="url(#frameG)"></ellipse>
  
  <ellipse cx="230" cy="280" rx="210" ry="260" fill="none" stroke="#1a0e04" stroke-width="1"></ellipse>
  <ellipse cx="230" cy="280" rx="200" ry="250" fill="url(#frameG)"></ellipse>

  
  <g stroke="#3a2410" stroke-width="1" fill="none">
    
    <g id="ornaments"></g>
  </g>

  
  <g fill="#7a5226" opacity="0.85">
    
    <path d="M210 18 Q230 0 250 18 Q240 30 230 22 Q220 30 210 18 Z"></path>
    
    <path d="M210 542 Q230 560 250 542 Q240 530 230 538 Q220 530 210 542 Z"></path>
    
    <path d="M8 270 Q-6 280 8 290 Q22 286 16 280 Q22 274 8 270 Z"></path>
    
    <path d="M452 270 Q466 280 452 290 Q438 286 444 280 Q438 274 452 270 Z"></path>
  </g>

  
  <g fill="#d6a85a" opacity="0.5">
    <g transform="translate(230 280)">
      <g id="leaves">
        
      </g>
    </g>
  </g>

  
  <g fill="#b8935a">
    <g transform="translate(230 280)">
      <g>
        <ellipse cx="0" cy="-258" rx="6" ry="10" transform="rotate(0)"></ellipse>
        <ellipse cx="0" cy="-258" rx="6" ry="10" transform="rotate(15)"></ellipse>
        <ellipse cx="0" cy="-258" rx="6" ry="10" transform="rotate(30)"></ellipse>
        <ellipse cx="0" cy="-258" rx="6" ry="10" transform="rotate(45)"></ellipse>
        <ellipse cx="0" cy="-258" rx="6" ry="10" transform="rotate(60)"></ellipse>
        <ellipse cx="0" cy="-258" rx="6" ry="10" transform="rotate(75)"></ellipse>
        <ellipse cx="0" cy="-258" rx="6" ry="10" transform="rotate(90)"></ellipse>
        <ellipse cx="0" cy="-258" rx="6" ry="10" transform="rotate(105)"></ellipse>
        <ellipse cx="0" cy="-258" rx="6" ry="10" transform="rotate(120)"></ellipse>
        <ellipse cx="0" cy="-258" rx="6" ry="10" transform="rotate(135)"></ellipse>
        <ellipse cx="0" cy="-258" rx="6" ry="10" transform="rotate(150)"></ellipse>
        <ellipse cx="0" cy="-258" rx="6" ry="10" transform="rotate(165)"></ellipse>
        <ellipse cx="0" cy="-258" rx="6" ry="10" transform="rotate(180)"></ellipse>
        <ellipse cx="0" cy="-258" rx="6" ry="10" transform="rotate(195)"></ellipse>
        <ellipse cx="0" cy="-258" rx="6" ry="10" transform="rotate(210)"></ellipse>
        <ellipse cx="0" cy="-258" rx="6" ry="10" transform="rotate(225)"></ellipse>
        <ellipse cx="0" cy="-258" rx="6" ry="10" transform="rotate(240)"></ellipse>
        <ellipse cx="0" cy="-258" rx="6" ry="10" transform="rotate(255)"></ellipse>
        <ellipse cx="0" cy="-258" rx="6" ry="10" transform="rotate(270)"></ellipse>
        <ellipse cx="0" cy="-258" rx="6" ry="10" transform="rotate(285)"></ellipse>
        <ellipse cx="0" cy="-258" rx="6" ry="10" transform="rotate(300)"></ellipse>
        <ellipse cx="0" cy="-258" rx="6" ry="10" transform="rotate(315)"></ellipse>
        <ellipse cx="0" cy="-258" rx="6" ry="10" transform="rotate(330)"></ellipse>
        <ellipse cx="0" cy="-258" rx="6" ry="10" transform="rotate(345)"></ellipse>
      </g>
    </g>
  </g>

  
  <ellipse cx="230" cy="280" rx="172" ry="222" fill="#1a0e04"></ellipse>
  <ellipse cx="230" cy="280" rx="168" ry="218" fill="url(#glassG)"></ellipse>

  
  <ellipse cx="180" cy="220" rx="60" ry="40" fill="#3a2a18" opacity="0.4"></ellipse>
  <ellipse cx="170" cy="200" rx="22" ry="14" fill="#7a5226" opacity="0.35"></ellipse>
  
  <ellipse cx="290" cy="320" rx="14" ry="22" fill="#c89548" opacity="0.25"></ellipse>
  <ellipse cx="290" cy="320" rx="6" ry="10" fill="#f0c870" opacity="0.5"></ellipse>
  
  <rect x="160" y="380" width="140" height="80" fill="#1a0e04" opacity="0.6"></rect>
  <rect x="180" y="360" width="20" height="100" fill="#2a1808" opacity="0.7"></rect>

  
  <ellipse cx="170" cy="160" rx="40" ry="30" fill="#fff" opacity="0.04"></ellipse>
</svg>