<svg xmlns="http://www.w3.org/2000/svg" viewBox="0 0 360 280" fill="none">
  <defs>
    <linearGradient id="boxG" x1="0" y1="0" x2="0" y2="1">
      <stop offset="0" stop-color="#3a2410"></stop>
      <stop offset="0.5" stop-color="#7a5226"></stop>
      <stop offset="1" stop-color="#1a0e04"></stop>
    </linearGradient>
    <linearGradient id="velvet" x1="0" y1="0" x2="0" y2="1">
      <stop offset="0" stop-color="#5a1a14"></stop>
      <stop offset="0.5" stop-color="#3a0a08"></stop>
      <stop offset="1" stop-color="#2a0606"></stop>
    </linearGradient>
  </defs>
  
  <ellipse cx="180" cy="270" rx="160" ry="8" fill="#000" opacity="0.6"></ellipse>
  
  <rect x="40" y="120" width="280" height="120" fill="url(#boxG)"></rect>
  <rect x="40" y="120" width="280" height="10" fill="#9c6f35"></rect>
  <rect x="40" y="230" width="280" height="10" fill="#9c6f35"></rect>
  
  <rect x="56" y="138" width="248" height="84" fill="none" stroke="#9c6f35" stroke-width="1"></rect>
  <rect x="62" y="144" width="236" height="72" fill="none" stroke="#d6a85a" stroke-width="0.5" opacity="0.6"></rect>
  
  <g transform="translate(180 180)">
    <path d="M0 -22 L18 0 L0 22 L-18 0 Z" fill="none" stroke="#d6a85a" stroke-width="0.8"></path>
    <circle r="4" fill="#d6a85a"></circle>
  </g>

  
  <g transform="translate(180 80) rotate(-10 0 50)">
    <rect x="-140" y="-10" width="280" height="60" fill="url(#boxG)"></rect>
    <rect x="-140" y="-10" width="280" height="8" fill="#9c6f35"></rect>
    <rect x="-140" y="42" width="280" height="8" fill="#9c6f35"></rect>
    
    <rect x="-128" y="0" width="256" height="40" fill="url(#velvet)"></rect>
    
    <ellipse cx="0" cy="22" rx="80" ry="14" fill="#1a1a1a"></ellipse>
    <ellipse cx="-20" cy="18" rx="20" ry="6" fill="#3a3a3a" opacity="0.5"></ellipse>
  </g>

  
  <g transform="translate(180 180)">
    <ellipse cx="0" cy="40" rx="20" ry="3" fill="#000" opacity="0.5"></ellipse>
    
    <ellipse cx="0" cy="20" rx="18" ry="6" fill="#e8d8b8" opacity="0.85"></ellipse>
    <ellipse cx="0" cy="20" rx="16" ry="4" fill="#fff8e0" opacity="0.6"></ellipse>
    
    <ellipse cx="0" cy="6" rx="3" ry="14" fill="#a87858"></ellipse>
    
    <path d="M0 0 Q-8 -10 -10 -22" stroke="#a87858" stroke-width="2" fill="none" stroke-linecap="round"></path>
    <path d="M0 0 Q8 -10 10 -22" stroke="#a87858" stroke-width="2" fill="none" stroke-linecap="round"></path>
    
    <circle cx="0" cy="-26" r="5" fill="#d4b890"></circle>
    <ellipse cx="0" cy="-30" rx="6" ry="3" fill="#3a2410"></ellipse>
  </g>
</svg>