<svg xmlns="http://www.w3.org/2000/svg" viewBox="0 0 80 360" fill="none">
  <defs>
    <linearGradient id="bladeG" x1="0" y1="0" x2="1" y2="0">
      <stop offset="0" stop-color="#3a3530"></stop>
      <stop offset="0.5" stop-color="#a8a098"></stop>
      <stop offset="1" stop-color="#3a3530"></stop>
    </linearGradient>
    <linearGradient id="hiltG" x1="0" y1="0" x2="1" y2="0">
      <stop offset="0" stop-color="#2a1808"></stop>
      <stop offset="0.5" stop-color="#9c6f35"></stop>
      <stop offset="1" stop-color="#2a1808"></stop>
    </linearGradient>
  </defs>
  
  <circle cx="40" cy="20" r="9" fill="url(#hiltG)"></circle>
  <circle cx="40" cy="20" r="5" fill="#3a2410"></circle>
  
  <rect x="36" y="29" width="8" height="42" fill="#2a1808"></rect>
  <g stroke="#5a3a18" stroke-width="0.6">
    <line x1="36" y1="34" x2="44" y2="34"></line>
    <line x1="36" y1="40" x2="44" y2="40"></line>
    <line x1="36" y1="46" x2="44" y2="46"></line>
    <line x1="36" y1="52" x2="44" y2="52"></line>
    <line x1="36" y1="58" x2="44" y2="58"></line>
    <line x1="36" y1="64" x2="44" y2="64"></line>
  </g>
  
  <rect x="14" y="71" width="52" height="6" fill="url(#hiltG)" rx="1"></rect>
  <circle cx="14" cy="74" r="4" fill="#7a5226"></circle>
  <circle cx="66" cy="74" r="4" fill="#7a5226"></circle>
  
  <path d="M36 78 L44 78 L42 340 L40 350 L38 340 Z" fill="url(#bladeG)"></path>
  <line x1="40" y1="80" x2="40" y2="340" stroke="#1a1a1a" stroke-width="0.6"></line>
  
  <line x1="38.5" y1="82" x2="39" y2="335" stroke="#e0d8c8" stroke-width="0.5" opacity="0.6"></line>
</svg>